<svg xmlns="http://www.w3.org/2000/svg" viewBox="0 0 22.09 27.07" xmlns:v="https://vecta.io/nano"><defs><clipPath id="A"><path d="M0 0h23.24v27.6H0z" fill="none"/></clipPath></defs><g clip-path="url(#A)"><path d="M18.46 15.18c-.74-3.74 2.8-5.95 2.8-5.95a6.82 6.82 0 0 0-3.72-2.52 6.45 6.45 0 0 0-4.66.61 5.21 5.21 0 0 1-1.74.48 5.21 5.21 0 0 1-1.74.48C9.48 7.8 8.25 6 5 6.84 2.84 7.4.52 9.94.1 13a16.68 16.68 0 0 0 2.23 9.93c1.75 3 3.52 4.14 4.78 4.17s2.52-.9 4-1.13 2.45.55 3.94 1 2 0 3.72-1.42 3.27-5.63 3.27-5.63a6 6 0 0 1-3.63-4.69zm0 0"/></g><path d="M15.17 4.28A5.11 5.11 0 0 0 16.26 0a8 8 0 0 0-3.87 2 5.84 5.84 0 0 0-1.29 4.17 7.31 7.31 0 0 0 4.07-1.91 7.31 7.31 0 0 0 4.07-1.91zm0 0"/></svg>