<svg xmlns="http://www.w3.org/2000/svg" viewBox="0 0 25.23 29.81" xmlns:v="https://vecta.io/nano"><defs><clipPath id="A"><path d="M0 0h25.23v29.8H0z" fill="none"/></clipPath></defs><g clip-path="url(#A)"><path d="M25.23 19.18a1.84 1.84 0 0 1-2.794 1.706 1.84 1.84 0 0 1-.876-1.706v-7.7a1.84 1.84 0 0 1 3.67 0zM17.08 5.65a.69.69 0 0 0-1.38.02.69.69 0 0 0 .7.68.7.7 0 0 0 .68-.7m-7.55 0a.69.69 0 0 0-1.38.007.69.69 0 0 0 .68.693.7.7 0 0 0 .7-.7m11.3 16.27a2 2 0 0 1-2 2h-1.3V28a1.85 1.85 0 0 1-3.69 0v-4.1h-2.47V28a1.84 1.84 0 0 1-3.68 0v-4.07H6.36a2 2 0 0 1-2-2V10h16.48zm.05-12.58H4.32a7.47 7.47 0 0 1 4.23-6.61L7.28.38a.26.26 0 0 1-.045-.208A.26.26 0 0 1 7.36 0a.28.28 0 0 1 .36.11L9 2.5a9 9 0 0 1 7.2 0L17.5.13a.29.29 0 0 1 .36-.13.26.26 0 0 1 .13.38l-1.32 2.35a7.49 7.49 0 0 1 4.21 6.61M3.67 11.48v7.7a1.84 1.84 0 0 1-2.794 1.706A1.84 1.84 0 0 1 0 19.19v-7.7a1.84 1.84 0 0 1 3.67 0" fill="#1d1d1b"/></g></svg>