<svg xmlns="http://www.w3.org/2000/svg" viewBox="0 0 28.54 28.54"><defs><style>.cls-1{fill:#1d1d1b;}</style></defs><title>Recurso 19</title><g id="Capa_2" data-name="Capa 2"><g id="Capa_1-2" data-name="Capa 1"><polygon class="cls-1" points="9.22 22.14 9.22 16.83 8.17 16.83 8.17 15.78 11.18 15.78 11.18 16.83 10.13 16.83 10.13 22.14 9.22 22.14"/><path class="cls-1" d="M14,17.36v4.78h-.83v-.47a.84.84,0,0,1-.77.6q-.82,0-.82-1.15V17.36h.82v3.12a2.43,2.43,0,0,0,0,.55c.05.19.16.28.32.28s.28-.1.34-.31a2.6,2.6,0,0,0,0-.59V17.36Z"/><path class="cls-1" d="M16,18.17c-.23,0-.38.24-.43.73,0,.1,0,.45,0,1.05a7.37,7.37,0,0,0,0,.87c.06.35.2.53.42.53s.33-.22.38-.65c0-.09,0-.4,0-.94s0-.87,0-.94c0-.44-.17-.65-.38-.65m-1.27,4V15.78h.85v2a.74.74,0,0,1,.72-.53c.43,0,.72.31.85.92a8.56,8.56,0,0,1,.1,1.61,7.93,7.93,0,0,1-.11,1.59c-.14.6-.43.9-.86.9a.77.77,0,0,1-.75-.63v.5Z"/><path class="cls-1" d="M18.69,19.15h.82v-.2a2.09,2.09,0,0,0-.06-.58.35.35,0,0,0-.36-.28.33.33,0,0,0-.32.19,1.45,1.45,0,0,0-.09.67V19s0,.09,0,.13m.85,1.36h.8s0,.05,0,.09a.72.72,0,0,1,0,.09,1.91,1.91,0,0,1-.31,1.2,1.14,1.14,0,0,1-.95.38,1,1,0,0,1-1-.46,2.35,2.35,0,0,1-.3-1.06q0-.31,0-1.15c0-.45,0-.78,0-1a2,2,0,0,1,.25-.89,1.12,1.12,0,0,1,1-.5,1.07,1.07,0,0,1,1,.54,4,4,0,0,1,.25,1.77v.36H18.7a2.75,2.75,0,0,0,0,.31,4.57,4.57,0,0,0,0,.76c.06.31.19.47.38.47s.43-.31.43-.94"/><path class="cls-1" d="M14.27,0A14.27,14.27,0,1,0,28.54,14.27,14.27,14.27,0,0,0,14.27,0Zm2.94,7h1.06v4a3.23,3.23,0,0,0,.06.71c.07.25.21.37.41.37s.37-.13.44-.4a3.36,3.36,0,0,0,.06-.77V7h1.11V13.2H19.27v-.61a1.09,1.09,0,0,1-1,.78q-1.06,0-1.06-1.49Zm-3.9.83a1.39,1.39,0,0,1,1.43-1,1.4,1.4,0,0,1,1.43,1,7.31,7.31,0,0,1,.24,2.26,7.35,7.35,0,0,1-.24,2.26,1.4,1.4,0,0,1-1.43,1,1.39,1.39,0,0,1-1.43-1,7.26,7.26,0,0,1-.24-2.25A7.3,7.3,0,0,1,13.31,7.86ZM9.49,5l1,3.09L11.39,5h1.27L11,9.72V13.2H9.85V9.72L8.19,5ZM22.34,21a2.49,2.49,0,0,1-2.54,2.54H8.74A2.49,2.49,0,0,1,6.2,21V17A2.49,2.49,0,0,1,8.74,14.5H19.8A2.49,2.49,0,0,1,22.34,17Z"/><path class="cls-1" d="M14.73,12.27c.29,0,.47-.24.53-.71q0-.16,0-1.16v-.6c0-.62,0-1,0-1.13-.07-.47-.24-.7-.52-.7s-.44.21-.51.62a9,9,0,0,0,0,1v.57c0,.77,0,1.18,0,1.25C14.26,12,14.44,12.27,14.73,12.27Z"/></g></g></svg>