<svg xmlns="http://www.w3.org/2000/svg" viewBox="0 0 28.54 28.54"><defs><style>.cls-1{fill:#1d1d1b;}</style></defs><title>Recurso 21</title><g id="Capa_2" data-name="Capa 2"><g id="Capa_1-2" data-name="Capa 1"><path class="cls-1" d="M14.27,0A14.27,14.27,0,1,0,28.54,14.27,14.27,14.27,0,0,0,14.27,0Zm7.8,10.06h0c-.53.2.57,3.74-2.73,7.93a11.44,11.44,0,0,1-7.16,4,9.42,9.42,0,0,1-7.49-1.63,8.53,8.53,0,0,0,5.7-1.75S7.43,18.41,6.74,16c0,0,1.34,0,1.63,0,0,0-3.13-1.06-3.09-4a4.54,4.54,0,0,0,1.65.41A4.18,4.18,0,0,1,5.85,7.06a10.73,10.73,0,0,0,8.1,4.07s-.45-3.46,2.56-4.52a3.89,3.89,0,0,1,4.27.94s2-.32,2.44-.94a3.13,3.13,0,0,1-1.51,2.12,5.3,5.3,0,0,0,2.16-.49A9.92,9.92,0,0,1,22.07,10.06Z"/></g></g></svg>