<svg xmlns="http://www.w3.org/2000/svg" viewBox="0 0 28.54 28.54"><defs><style>.cls-1{fill:#1d1d1b;}</style></defs><title>Recurso 17</title><g id="Capa_2" data-name="Capa 2"><g id="Capa_1-2" data-name="Capa 1"><circle class="cls-1" cx="14.27" cy="14.27" r="3.22"/><path class="cls-1" d="M21.79,8.58A3.2,3.2,0,0,0,20,6.75a5.34,5.34,0,0,0-1.79-.33c-1,0-1.32-.06-3.9-.06s-2.88,0-3.9.06a5.34,5.34,0,0,0-1.79.33A3.2,3.2,0,0,0,6.75,8.58a5.34,5.34,0,0,0-.33,1.79c0,1-.06,1.32-.06,3.9s0,2.88.06,3.9A5.34,5.34,0,0,0,6.75,20a3.2,3.2,0,0,0,1.83,1.83,5.34,5.34,0,0,0,1.79.33c1,0,1.32.06,3.9.06s2.88,0,3.9-.06A5.34,5.34,0,0,0,20,21.79,3.2,3.2,0,0,0,21.79,20a5.34,5.34,0,0,0,.33-1.79c0-1,.06-1.32.06-3.9s0-2.88-.06-3.9A5.34,5.34,0,0,0,21.79,8.58ZM14.27,19.22a5,5,0,1,1,5-5A5,5,0,0,1,14.27,19.22Zm5.15-8.95a1.16,1.16,0,1,1,1.16-1.16A1.16,1.16,0,0,1,19.42,10.28Z"/><path class="cls-1" d="M14.27,0A14.27,14.27,0,1,0,28.54,14.27,14.27,14.27,0,0,0,14.27,0Zm9.59,18.25a7.08,7.08,0,0,1-.45,2.34,4.93,4.93,0,0,1-2.82,2.82,7.08,7.08,0,0,1-2.34.45c-1,0-1.36.06-4,.06s-2.95,0-4-.06a7.08,7.08,0,0,1-2.34-.45,4.93,4.93,0,0,1-2.82-2.82,7.08,7.08,0,0,1-.45-2.34c0-1-.06-1.36-.06-4s0-2.95.06-4a7.08,7.08,0,0,1,.45-2.34A4.93,4.93,0,0,1,7.95,5.13a7.08,7.08,0,0,1,2.34-.45c1,0,1.36-.06,4-.06s2.95,0,4,.06a7.08,7.08,0,0,1,2.34.45,4.93,4.93,0,0,1,2.82,2.82,7.08,7.08,0,0,1,.45,2.34c0,1,.06,1.36.06,4S23.91,17.22,23.86,18.25Z"/></g></g></svg>