<svg xmlns="http://www.w3.org/2000/svg" xmlns:xlink="http://www.w3.org/1999/xlink" viewBox="0 0 28.54 28.54"><defs><style>.cls-1{fill:none;}.cls-2{clip-path:url(#clip-path);}.cls-3{fill:#1d1d1b;}.cls-4{fill:#fff;}</style><clipPath id="clip-path"><rect class="cls-1" width="28.54" height="28.54"/></clipPath></defs><title>Recurso 16</title><g id="Capa_2" data-name="Capa 2"><g id="Capa_1-2" data-name="Capa 1"><g class="cls-2"><path class="cls-3" d="M14.27,28.54A14.27,14.27,0,1,0,0,14.27,14.27,14.27,0,0,0,14.27,28.54"/><path class="cls-4" d="M25.3,14.1H22.7V15.2h1v1.43a1,1,0,0,1-.36.37,1.44,1.44,0,0,1-.69.13,1.15,1.15,0,0,1-.95-.4,2,2,0,0,1-.33-1.24V13a1.93,1.93,0,0,1,.32-1.22,1.08,1.08,0,0,1,.89-.4,1.11,1.11,0,0,1,.86.31,1.49,1.49,0,0,1,.3,1h1.46v0a2.56,2.56,0,0,0-.69-1.85,2.73,2.73,0,0,0-2-.65,2.65,2.65,0,0,0-2,.75,2.9,2.9,0,0,0-.75,2.13v2.43a2.63,2.63,0,0,0,2.83,2.88A3.11,3.11,0,0,0,24.34,18a2.85,2.85,0,0,0,1-.91Zm-7.6,1.28a2.2,2.2,0,0,1-.32,1.3,1.19,1.19,0,0,1-1.84,0,2.22,2.22,0,0,1-.31-1.3V13.14a2.24,2.24,0,0,1,.31-1.29,1.05,1.05,0,0,1,.92-.43,1.07,1.07,0,0,1,.92.44,2.19,2.19,0,0,1,.32,1.29Zm1.55-2.23A3,3,0,0,0,18.48,11a2.68,2.68,0,0,0-2-.79,2.64,2.64,0,0,0-2,.8,3.05,3.05,0,0,0-.75,2.19v2.23a3,3,0,0,0,.75,2.19,2.66,2.66,0,0,0,2,.79,2.68,2.68,0,0,0,2-.79,3,3,0,0,0,.76-2.19Zm-8.47-2.87H9.22v8h4.47V17H10.78Zm-6,1.24h.79a1.08,1.08,0,0,1,.79.26,1.12,1.12,0,0,1,.26.82,1.06,1.06,0,0,1-.25.77,1,1,0,0,1-.73.28H4.79ZM6,14.74a.75.75,0,0,1,.67.31,1.55,1.55,0,0,1,.21.88,1.19,1.19,0,0,1-.24.81.93.93,0,0,1-.74.27H4.79V14.74Zm-.1,3.51a2.7,2.7,0,0,0,1.87-.59,2.22,2.22,0,0,0,.65-1.73,2.17,2.17,0,0,0-.3-1.15,1.41,1.41,0,0,0-.93-.64,1.55,1.55,0,0,0,.75-.66,2,2,0,0,0,.25-1,2,2,0,0,0-.69-1.63,3,3,0,0,0-1.92-.55H3.23v8Z"/></g></g></g></svg>